<?xml version="1.0" encoding="UTF-8" standalone="no"?>
<!DOCTYPE svg PUBLIC "-//W3C//DTD SVG 1.1//EN" "http://www.w3.org/Graphics/SVG/1.1/DTD/svg11.dtd">
<svg width="100%" height="100%" viewBox="0 0 42 24" version="1.1" xmlns="http://www.w3.org/2000/svg" xmlns:xlink="http://www.w3.org/1999/xlink" xml:space="preserve" xmlns:serif="http://www.serif.com/" style="fill-rule:evenodd;clip-rule:evenodd;stroke-linejoin:round;stroke-miterlimit:2;">
    <path d="M20.042,14.455C20.042,14.455 24.224,12.882 24.224,8.883C24.224,4.884 24.224,5.261 24.224,5.261L15.86,5.261L15.86,8.883C15.86,12.882 20.042,14.455 20.042,14.455Z" style="fill:#f2d244;stroke:#3f3f3f;stroke-width:0.17px;"/>
    <path d="M15.86,5.261L15.86,6.961L18.921,10.021L18.921,13.876C19.559,14.273 20.042,14.455 20.042,14.455C20.042,14.455 20.525,14.273 21.163,13.876L21.163,10.021L24.224,6.961L24.224,5.261L22.785,5.261L20.042,8.003L17.298,5.261L15.86,5.261Z" style="fill:#d74026;stroke:#3f3f3f;stroke-width:0.17px;stroke-linecap:square;stroke-linejoin:miter;stroke-miterlimit:4;"/>
</svg>
