<?xml version="1.0" standalone="no"?>
<!DOCTYPE svg PUBLIC "-//W3C//DTD SVG 20010904//EN"
 "http://www.w3.org/TR/2001/REC-SVG-20010904/DTD/svg10.dtd">
<svg version="1.0" xmlns="http://www.w3.org/2000/svg"
 width="252.000000pt" height="242.000000pt" viewBox="0 0 252.000000 242.000000"
 preserveAspectRatio="xMidYMid meet">

<g transform="translate(0.000000,242.000000) scale(0.100000,-0.100000)"
fill="#3f3f3f" stroke="none">
<path d="M1070 2315 c-161 -25 -343 -105 -480 -210 -119 -91 -242 -239 -309
-373 -76 -151 -131 -408 -116 -546 28 -265 97 -446 235 -621 461 -581 1356
-543 1764 75 98 148 147 281 171 468 44 330 -71 667 -307 900 -89 87 -139 125
-243 185 -206 117 -464 161 -715 122z m425 -145 c164 -42 347 -151 461 -273
194 -210 291 -509 250 -777 -34 -229 -128 -416 -286 -570 -456 -442 -1218
-319 -1511 243 -56 108 -85 199 -105 328 -14 93 -15 125 -6 202 23 181 72 318
167 462 139 208 386 364 642 405 92 14 296 4 388 -20z"/>
<path d="M940 1258 c-34 -29 -85 -68 -113 -86 -50 -31 -160 -72 -197 -72 -20
0 -45 -26 -54 -56 -8 -27 28 -74 57 -74 39 0 160 36 220 64 32 16 85 50 119
77 100 80 130 137 91 171 -40 35 -58 31 -123 -24z"/>
<path d="M1470 1297 c-13 -7 -29 -25 -34 -39 -8 -22 -5 -34 15 -62 34 -48 124
-120 195 -155 63 -31 192 -71 231 -71 29 0 65 47 57 74 -9 30 -34 56 -54 56
-37 0 -147 41 -197 72 -28 18 -79 57 -113 86 -34 28 -64 52 -68 52 -4 0 -18
-6 -32 -13z"/>
<path d="M1104 802 c-105 -37 -224 -127 -224 -168 0 -19 19 -56 34 -66 24 -16
56 -6 102 33 99 82 189 109 301 89 68 -11 109 -33 181 -94 47 -39 81 -45 106
-20 59 58 4 132 -154 208 -59 28 -75 31 -180 34 -91 2 -126 -1 -166 -16z"/>
</g>
</svg>
