<?xml version="1.0" standalone="no"?>
<!DOCTYPE svg PUBLIC "-//W3C//DTD SVG 20010904//EN" "http://www.w3.org/TR/2001/REC-SVG-20010904/DTD/svg10.dtd">
<svg width="100%" height="100%" viewBox="0 0 31 34" version="1.1" xmlns="http://www.w3.org/2000/svg" xmlns:xlink="http://www.w3.org/1999/xlink" xml:space="preserve" xmlns:serif="http://www.serif.com/" style="fill-rule:evenodd;clip-rule:evenodd;stroke-linejoin:round;stroke-miterlimit:2;">
    <g>
        <path d="M15.388,32.433C15.388,32.433 29.605,27.083 29.605,13.487C29.605,-0.109 29.605,1.172 29.605,1.172L1.17,1.172L1.17,13.487C1.17,27.083 15.388,32.433 15.388,32.433Z" style="fill:rgb(242,210,68);stroke:rgb(63,63,63);stroke-width:0.57px;"/>
        <path d="M1.173,1.173L1.173,6.952L11.58,17.356L11.58,30.465C13.747,31.815 15.39,32.433 15.39,32.433C15.39,32.433 17.033,31.815 19.201,30.465L19.201,17.356L29.608,6.952L29.608,1.173L24.718,1.173L15.39,10.497L6.062,1.173L1.173,1.173Z" style="fill:rgb(215,64,38);stroke:rgb(63,63,63);stroke-width:0.57px;stroke-linecap:square;stroke-linejoin:miter;stroke-miterlimit:4;"/>
    </g>
</svg>
